SplineFontDB: 3.0
FontName: tsi4n-smcp
FullName: tsi4n-smcp
FamilyName: tsi4n-smcp
Weight: regular
Copyright: http://dejavu-fonts.org
Version: 10.18
ItalicAngle: -11
UnderlinePosition: -85
UnderlineWidth: 90
Ascent: 1638
Descent: 410
sfntRevision: 0x000a2e14
LayerCount: 2
Layer: 0 1 "Back"  1
Layer: 1 1 "Fore"  0
XUID: [1021 545 1002448030 10171440]
FSType: 0
OS2Version: 3
OS2_WeightWidthSlopeOnly: 0
OS2_UseTypoMetrics: 1
CreationTime: 1337492563
ModificationTime: 1337528859
PfmFamily: 17
TTFWeight: 400
TTFWidth: 5
LineGap: 0
VLineGap: 0
Panose: 2 6 6 3 5 3 5 11 2 4
OS2TypoAscent: 263
OS2TypoAOffset: 1
OS2TypoDescent: -73
OS2TypoDOffset: 1
OS2TypoLinegap: 0
OS2WinAscent: 336
OS2WinAOffset: 1
OS2WinDescent: 0
OS2WinDOffset: 1
HheadAscent: 336
HheadAOffset: 1
HheadDescent: 0
HheadDOffset: 1
OS2SubXSize: 1331
OS2SubYSize: 1433
OS2SubXOff: 54
OS2SubYOff: 286
OS2SupXSize: 1331
OS2SupYSize: 1433
OS2SupXOff: -187
OS2SupYOff: 983
OS2StrikeYSize: 102
OS2StrikeYPos: 530
OS2Vendor: 'PfEd'
OS2CodePages: 00000000.00000000
OS2UnicodeRanges: 00000000.00000000.00000000.00000000
MarkAttachClasses: 1
DEI: 91125
TtTable: prep
PUSHW_1
 511
SCANCTRL
PUSHB_1
 1
SCANTYPE
SVTCA[y-axis]
MPPEM
PUSHB_1
 8
LT
IF
PUSHB_2
 1
 1
INSTCTRL
EIF
PUSHB_2
 70
 6
CALL
IF
POP
PUSHB_1
 16
EIF
MPPEM
PUSHB_1
 20
GT
IF
POP
PUSHB_1
 128
EIF
SCVTCI
PUSHB_1
 6
CALL
NOT
IF
SVTCA[y-axis]
PUSHB_1
 2
DUP
RCVT
PUSHB_1
 3
CALL
WCVTP
PUSHB_1
 3
DUP
RCVT
PUSHB_3
 2
 84
 2
CALL
PUSHB_1
 3
CALL
WCVTP
PUSHB_1
 4
DUP
RCVT
PUSHB_3
 3
 26
 2
CALL
PUSHB_1
 3
CALL
WCVTP
SVTCA[x-axis]
PUSHB_1
 5
DUP
RCVT
PUSHB_1
 3
CALL
WCVTP
PUSHB_1
 6
DUP
RCVT
PUSHB_3
 5
 18
 2
CALL
PUSHB_2
 3
 70
SROUND
CALL
WCVTP
PUSHB_1
 7
DUP
RCVT
PUSHB_3
 6
 24
 2
CALL
PUSHB_2
 3
 70
SROUND
CALL
WCVTP
PUSHB_1
 8
DUP
RCVT
PUSHB_3
 7
 72
 2
CALL
PUSHB_2
 3
 70
SROUND
CALL
WCVTP
PUSHB_1
 9
DUP
RCVT
PUSHB_3
 8
 56
 2
CALL
PUSHB_2
 3
 70
SROUND
CALL
WCVTP
PUSHB_1
 10
DUP
RCVT
PUSHB_3
 9
 26
 2
CALL
PUSHB_2
 3
 70
SROUND
CALL
WCVTP
PUSHB_1
 11
DUP
RCVT

StartChar: numbersign
Encoding: 257 35 1
Width: 1413
VWidth: 0
GlyphClass: 2
Flags: W
HStem: 0 21G<393.95 540.549 786.95 935.004> 294 153<231.95 477.95 664.95 872.95 1050.95 1308.95> 674 154<320.95 582.95 771.95 974.95 1152.95 1398.95>
VStem: 715.95 140<1013 1153> 786.95 142<0 142> 1097.95 142<1011 1153>
DStem2: 393.95 0 533.95 0 0.268979 0.963146<37.6571 305.759 503.42 503.42 899.159 1197.12> 786.95 0 928.95 0 0.260424 0.965494<36.9802 306.252 500.328 699.703 894.744 1194.21>
LayerCount: 2
Fore
SplineSet
974.95 674 m 1,0,-1
 739.95 674 l 1,1,-1
 664.95 447 l 1,2,-1
 905.95 447 l 1,3,-1
 974.95 674 l 1,0,-1
855.95 1153 m 1,4,-1
 771.95 828 l 1,5,-1
 1008.95 828 l 1,6,-1
 1097.95 1153 l 1,7,-1
 1239.95 1153 l 1,8,-1
 1152.95 828 l 1,9,-1
 1398.95 828 l 1,10,-1
 1398.95 674 l 1,11,-1
 1120.95 674 l 1,12,-1
 1050.95 447 l 1,13,-1
 1308.95 447 l 1,14,-1
 1308.95 294 l 1,15,-1
 1017.95 294 l 1,16,-1
 928.95 0 l 1,17,-1
 786.95 0 l 1,18,-1
 872.95 294 l 1,19,-1
 630.95 294 l 1,20,-1
 533.95 0 l 1,21,-1
 393.95 0 l 1,22,-1
 477.95 294 l 1,23,-1
 231.95 294 l 1,24,-1
 231.95 447 l 1,25,-1
 509.95 447 l 1,26,-1
 582.95 674 l 1,27,-1
 320.95 674 l 1,28,-1
 320.95 828 l 1,29,-1
 618.95 828 l 1,30,-1
 715.95 1153 l 1,31,-1
 855.95 1153 l 1,4,-1
EndSplineSet
EndChar

StartChar: dollar
Encoding: 258 36 2
Width: 1094
VWidth: 0
GlyphClass: 2
Flags: W
HStem: -34 98<351.711 491.906 594.906 736.829> 738 205<959.244 1038.91> 918 102<543.431 677.906 780.906 901.835>
VStem: 306.906 166<647.134 833.944> 448.906 83<-258 -175> 751.906 83<1217 1300> 812.906 176<161.069 358.964> 948.906 90.004<738 871.585>
DStem2: 448.906 -258 531.906 -258 0.190809 0.981627<15.8371 228.089 343.942 695.388 872.138 1198.09 1317.87 1587.19>
LayerCount: 2
Fore
SplineSet
594.906 64 m 1,0,1
 684.906 64 684.906 64 738.906 109 c 0,2,3
 812.906 171 812.906 171 812.906 276 c 0,4,5
 812.906 306 812.906 306 781.406 346 c 128,-1,6
 749.906 386 749.906 386 661.906 409 c 1,7,-1
 594.906 64 l 1,0,1
677.906 918 m 1,8,9
 595.906 918 595.906 918 534.406 868 c 128,-1,10
 472.906 818 472.906 818 472.906 733 c 0,11,12
 472.906 642 472.906 642 615.906 598 c 1,13,-1
 677.906 918 l 1,8,9
183.906 67 m 1,14,-1
 218.906 283 l 1,15,-1
 306.906 283 l 1,16,17
 301.906 256 301.906 256 301.906 231 c 0,18,19
 301.906 164 301.906 164 345.906 114 c 128,-1,20
 389.906 64 389.906 64 511.906 64 c 1,21,-1
 583.906 434 l 1,22,23
 412.906 486 412.906 486 359.906 542.5 c 128,-1,24
 306.906 599 306.906 599 306.906 668 c 0,25,26
 306.906 696 306.906 696 313.906 728 c 0,27,28
 337.906 856 337.906 856 439.906 938 c 128,-1,29
 541.906 1020 541.906 1020 697.906 1020 c 1,30,-1
 751.906 1300 l 1,31,-1
 834.906 1300 l 1,32,-1
 780.906 1020 l 1,33,34
 908.906 1020 908.906 1020 1060.91 943 c 1,35,-1
 1038.91 738 l 1,36,-1
 948.906 738 l 1,37,-1
 948.906 763 l 2,38,39
 948.906 811 948.906 811 910.906 864.5 c 128,-1,40
 872.906 918 872.906 918 760.906 918 c 1,41,-1
 693.906 573 l 1,42,43
 875.906 520 875.906 520 932.406 460.5 c 128,-1,44
 988.906 401 988.906 401 988.906 327 c 0,45,46
 988.906 299 988.906 299 981.906 267 c 0,47,48
 956.906 135 956.906 135 850.406 50.5 c 128,-1,49
 743.906 -34 743.906 -34 574.906 -34 c 1,50,-1
 531.906 -258 l 1,51,-1
 448.906 -258 l 1,52,-1
 491.906 -34 l 1,53,54
 345.906 -34 345.906 -34 183.906 67 c 1,14,-1
EndSplineSet
EndChar

StartChar: quotesingle
Encoding: 259 39 3
Width: 556
VWidth: 0
GlyphClass: 2
Flags: W
HStem: 615 555<385.984 516.984>
VStem: 385.984 131<615 1170>
LayerCount: 2
Fore
SplineSet
516.984 1170 m 1,0,-1
 516.984 615 l 1,1,-1
 385.984 615 l 1,2,-1
 385.984 1170 l 1,3,-1
 516.984 1170 l 1,0,-1
EndSplineSet
EndChar

StartChar: parenleft
Encoding: 260 40 4
Width: 732
VWidth: 0
GlyphClass: 2
Flags: W
VStem: 240.765 147<-14.0361 505.457>
LayerCount: 2
Fore
SplineSet
387.765 163 m 0,0,1
 387.765 -65 387.765 -65 524.765 -173 c 1,2,-1
 509.765 -250 l 1,3,4
 240.765 -120 240.765 -120 240.765 240 c 0,5,6
 240.765 352 240.765 352 267.765 484 c 1,7,8
 376.765 1047 376.765 1047 794.765 1219 c 1,9,-1
 779.765 1142 l 1,10,11
 643.765 1059 643.765 1059 561.765 908.5 c 128,-1,12
 479.765 758 479.765 758 426.765 484 c 1,13,14
 387.765 294 387.765 294 387.765 163 c 0,0,1
EndSplineSet
EndChar

StartChar: parenright
Encoding: 261 41 5
Width: 731
VWidth: 0
GlyphClass: 2
Flags: W
VStem: 532.503 147<466.533 986.361>
LayerCount: 2
Fore
SplineSet
409.503 1219 m 1,0,1
 679.503 1089 679.503 1089 679.503 737 c 0,2,3
 679.503 733 679.503 733 679.503 729 c 0,4,5
 679.503 617 679.503 617 652.503 484 c 1,6,7
 543.503 -78 543.503 -78 124.503 -250 c 1,8,-1
 139.503 -173 l 1,9,10
 275.503 -90 275.503 -90 357.503 61 c 128,-1,11
 439.503 212 439.503 212 486.003 442.5 c 128,-1,12
 532.503 673 532.503 673 532.503 803 c 0,13,14
 532.503 1033 532.503 1033 394.503 1142 c 1,15,-1
 409.503 1219 l 1,0,1
EndSplineSet
EndChar

StartChar: plus
Encoding: 262 43 6
Width: 1251
VWidth: 0
GlyphClass: 2
Flags: W
HStem: 0 21G<654.355 786.355> 407 162<215.355 654.355 786.355 1225.36>
VStem: 654.355 132<0 407 569 1009>
LayerCount: 2
Fore
SplineSet
786.355 1009 m 1,0,-1
 786.355 569 l 1,1,-1
 1225.36 569 l 1,2,-1
 1225.36 407 l 1,3,-1
 786.355 407 l 1,4,-1
 786.355 0 l 1,5,-1
 654.355 0 l 1,6,-1
 654.355 407 l 1,7,-1
 215.355 407 l 1,8,-1
 215.355 569 l 1,9,-1
 654.355 569 l 1,10,-1
 654.355 1009 l 1,11,-1
 786.355 1009 l 1,0,-1
EndSplineSet
EndChar

StartChar: comma
Encoding: 263 44 7
Width: 674
VWidth: 0
GlyphClass: 2
Flags: W
HStem: -274 507
VStem: 357.79 168<75.25 233>
LayerCount: 2
Fore
SplineSet
155.79 -194 m 1,0,1
 318.79 -61 318.79 -61 357.79 196 c 1,2,-1
 363.79 233 l 1,3,-1
 525.79 233 l 1,4,5
 492.79 62 492.79 62 415.29 -61 c 128,-1,6
 337.79 -184 337.79 -184 206.79 -274 c 1,7,-1
 155.79 -194 l 1,0,1
EndSplineSet
EndChar

StartChar: hyphen
Encoding: 264 45 8
Width: 797
VWidth: 0
GlyphClass: 2
Flags: W
HStem: 351 157<292.986 670.986>
VStem: 269.986 424
LayerCount: 2
Fore
SplineSet
292.986 508 m 1,0,-1
 693.986 508 l 1,1,-1
 670.986 351 l 1,2,-1
 269.986 351 l 1,3,-1
 292.986 508 l 1,0,-1
EndSplineSet
EndChar

StartChar: period
Encoding: 265 46 9
Width: 584
VWidth: 0
GlyphClass: 2
Flags: W
HStem: -52 268<244.254 372.725>
VStem: 201.223 215<-9.28369 172.83>
LayerCount: 2
Fore
SplineSet
221.723 -19 m 128,-1,1
 201.223 14 201.223 14 201.223 69 c 128,-1,2
 201.223 124 201.223 124 242.723 170 c 128,-1,3
 284.223 216 284.223 216 328.223 216 c 128,-1,4
 372.223 216 372.223 216 394.223 182.5 c 128,-1,5
 416.223 149 416.223 149 416.223 123 c 128,-1,6
 416.223 97 416.223 97 410.723 61.5 c 128,-1,7
 405.223 26 405.223 26 368.223 -13 c 128,-1,8
 331.223 -52 331.223 -52 286.723 -52 c 128,-1,0
 242.223 -52 242.223 -52 221.723 -19 c 128,-1,1
EndSplineSet
EndChar

StartChar: slash
Encoding: 266 47 10
Width: 878
VWidth: 0
GlyphClass: 2
Flags: W
HStem: 1150 20G<807.29 955.842>
DStem2: 119.842 -153 257.842 -153 0.466628 0.884454<64.3947 1495.84>
LayerCount: 2
Fore
SplineSet
817.842 1170 m 1,0,-1
 955.842 1170 l 1,1,-1
 257.842 -153 l 1,2,-1
 119.842 -153 l 1,3,-1
 817.842 1170 l 1,0,-1
EndSplineSet
EndChar

StartChar: zero
Encoding: 267 48 11
Width: 1197
VWidth: 0
GlyphClass: 2
Flags: W
HStem: -34 100<496.382 733.776> 1102 100<690.463 925.457>
VStem: 282.018 158<128.884 634.607> 984.018 158.002<533.48 1039.12>
LayerCount: 2
Fore
SplineSet
440.018 317 m 0,0,1
 440.018 66 440.018 66 609.018 66 c 0,2,3
 847.018 66 847.018 66 951.018 584 c 1,4,5
 984.018 741 984.018 741 984.018 851 c 0,6,7
 984.018 1102 984.018 1102 814.018 1102 c 0,8,9
 577.018 1102 577.018 1102 473.018 584 c 1,10,11
 440.018 426 440.018 426 440.018 317 c 0,0,1
922.518 129 m 128,-1,13
 785.018 -34 785.018 -34 594.518 -34 c 128,-1,14
 404.018 -34 404.018 -34 326.018 129 c 0,15,16
 282.018 221 282.018 221 282.018 339 c 128,-1,17
 282.018 457 282.018 457 308.018 584 c 1,18,19
 364.018 877 364.018 877 502.018 1039.5 c 128,-1,20
 640.018 1202 640.018 1202 830.518 1202 c 128,-1,21
 1021.02 1202 1021.02 1202 1098.02 1039 c 0,22,23
 1142.02 947 1142.02 947 1142.02 829 c 128,-1,24
 1142.02 711 1142.02 711 1116.02 584 c 1,25,12
 1060.02 292 1060.02 292 922.518 129 c 128,-1,13
EndSplineSet
EndChar

StartChar: one
Encoding: 268 49 12
Width: 809
VWidth: 0
GlyphClass: 2
Flags: W
HStem: 0 106<151.883 355.883 522.883 717.883>
VStem: 135.883 602
DStem2: 292.883 1038 274.883 920 0.888071 0.459707<0 233.542> 335.279 0 502.279 0 0.190809 0.981627<139.849 1084.85>
LayerCount: 2
Fore
SplineSet
135.883 0 m 1,0,-1
 151.883 106 l 1,1,-1
 355.883 106 l 1,2,-1
 541.883 1065 l 1,3,-1
 274.883 920 l 1,4,-1
 292.883 1038 l 1,5,-1
 632.883 1214 l 1,6,-1
 737.883 1214 l 1,7,-1
 522.883 106 l 1,8,-1
 735.883 106 l 1,9,-1
 717.883 0 l 1,10,-1
 135.883 0 l 1,0,-1
EndSplineSet
EndChar

StartChar: two
Encoding: 269 50 13
Width: 1088
VWidth: 0
GlyphClass: 2
Flags: W
HStem: 0 164<413.404 862.404> 1092 98<558.247 865.817>
VStem: 347.404 92<882 947.679> 885.404 97<185 282> 917.404 184.996<761.355 1040.59>
DStem2: 181.404 108 413.404 164 0.788164 0.615466<217.32 861.148>
LayerCount: 2
Fore
SplineSet
727.404 1092 m 0,0,1
 505.404 1092 505.404 1092 439.404 882 c 1,2,-1
 347.404 882 l 1,3,-1
 390.404 1079 l 1,4,5
 583.404 1190 583.404 1190 761.404 1190 c 2,6,-1
 763.404 1190 l 2,7,8
 942.404 1190 942.404 1190 1034.4 1100 c 0,9,10
 1102.4 1033 1102.4 1033 1102.4 932 c 0,11,12
 1102.4 896 1102.4 896 1093.4 855 c 0,13,14
 1058.4 678 1058.4 678 755.404 432 c 0,15,16
 733.404 415 733.404 415 721.404 405 c 2,17,-1
 413.404 164 l 1,18,-1
 862.404 164 l 1,19,-1
 885.404 282 l 1,20,-1
 982.404 282 l 1,21,-1
 927.404 0 l 1,22,-1
 165.404 0 l 1,23,-1
 181.404 108 l 1,24,-1
 610.404 443 l 1,25,26
 750.404 556 750.404 556 819.404 651 c 0,27,28
 917.404 786 917.404 786 917.404 920 c 0,29,30
 917.404 985 917.404 985 884.404 1028 c 0,31,32
 835.404 1092 835.404 1092 727.404 1092 c 0,0,1
EndSplineSet
EndChar

StartChar: three
Encoding: 270 51 14
Width: 1111
VWidth: 0
GlyphClass: 2
Flags: W
HStem: -34 100<366.321 706.476> 582 103<561.804 768.037> 1102 100<572.674 884.99>
VStem: 217.804 92<243.625 285> 378.804 92<913 980.584> 855.804 164.996<215.128 519.572> 925.804 161.996<816.836 1062.25>
LayerCount: 2
Fore
SplineSet
740.804 1102 m 0,0,1
 528.804 1102 528.804 1102 470.804 913 c 1,2,-1
 378.804 913 l 1,3,-1
 420.804 1111 l 1,4,5
 625.804 1202 625.804 1202 783.804 1202 c 128,-1,6
 941.804 1202 941.804 1202 1025.8 1126 c 0,7,8
 1087.8 1070 1087.8 1070 1087.8 983 c 0,9,10
 1087.8 952 1087.8 952 1079.8 917 c 1,11,12
 1059.8 809 1059.8 809 979.304 737 c 128,-1,13
 898.804 665 898.804 665 771.804 640 c 1,14,15
 910.804 620 910.804 620 976.804 535 c 0,16,17
 1020.8 478 1020.8 478 1020.8 418.5 c 128,-1,18
 1020.8 359 1020.8 359 1011.8 316 c 0,19,20
 979.804 147 979.804 147 851.304 56.5 c 128,-1,21
 722.804 -34 722.804 -34 525.804 -34 c 128,-1,22
 328.804 -34 328.804 -34 173.804 68 c 1,23,-1
 217.804 285 l 1,24,-1
 309.804 285 l 1,25,26
 306.804 263 306.804 263 306.804 243 c 0,27,28
 306.804 166 306.804 166 358.804 116 c 128,-1,29
 410.804 66 410.804 66 533.804 66 c 128,-1,30
 656.804 66 656.804 66 739.804 132 c 0,31,32
 855.804 225 855.804 225 855.804 397 c 0,33,34
 855.804 469 855.804 469 816.804 514 c 0,35,36
 758.804 582 758.804 582 619.804 582 c 2,37,-1
 545.804 582 l 1,38,-1
 561.804 685 l 1,39,-1
 600.804 685 l 2,40,41
 874.804 685 874.804 685 918.804 901 c 0,42,43
 925.804 931 925.804 931 925.804 971.5 c 128,-1,44
 925.804 1012 925.804 1012 886.304 1057 c 128,-1,45
 846.804 1102 846.804 1102 740.804 1102 c 0,0,1
EndSplineSet
EndChar

StartChar: four
Encoding: 271 52 15
Width: 1189
VWidth: 0
GlyphClass: 2
Flags: W
HStem: 0 106<502.576 690.576 856.576 1037.58> 306 107<340.576 729.576 916.576 1118.57>
DStem2: 210.576 415 340.576 413 0.668083 0.744087<85.3626 868.573> 669.972 0 835.972 0 0.190809 0.981627<139.658 311.751 452.466 1014.64>
LayerCount: 2
Fore
SplineSet
750.576 413 m 1,0,-1
 863.576 996 l 1,1,-1
 340.576 413 l 1,2,-1
 750.576 413 l 1,0,-1
1037.58 0 m 1,3,-1
 486.576 0 l 1,4,-1
 502.576 106 l 1,5,-1
 690.576 106 l 1,6,-1
 729.576 306 l 1,7,-1
 194.576 306 l 1,8,-1
 210.576 415 l 1,9,-1
 922.576 1208 l 1,10,-1
 1070.57 1208 l 1,11,-1
 916.576 413 l 1,12,-1
 1135.57 413 l 1,13,-1
 1118.57 306 l 1,14,-1
 895.576 306 l 1,15,-1
 856.576 106 l 1,16,-1
 1054.57 106 l 1,17,-1
 1037.58 0 l 1,3,-1
EndSplineSet
EndChar

StartChar: five
Encoding: 272 53 16
Width: 1089
VWidth: 0
GlyphClass: 2
Flags: W
HStem: -23 99<362.433 693.062> 662 98<480.621 799.121> 1006 164<500.266 1035.27>
VStem: 220.266 93<243.657 288> 862.266 149.004<268.21 599.582>
DStem2: 211.776 -23 300.062 -23 0.190809 0.981627<741.153 1065.14>
LayerCount: 2
Fore
SplineSet
829.266 586 m 0,0,1
 777.266 662 777.266 662 645.266 662 c 2,2,-1
 643.266 662 l 2,3,4
 509.266 662 509.266 662 404.266 566 c 1,5,-1
 326.266 566 l 1,6,-1
 443.266 1170 l 1,7,-1
 1060.27 1170 l 1,8,-1
 1035.27 1006 l 1,9,-1
 500.266 1006 l 1,10,-1
 438.266 688 l 1,11,12
 530.266 760 530.266 760 666.266 760 c 0,13,14
 855.266 760 855.266 760 947.266 656 c 0,15,16
 1011.27 583 1011.27 583 1011.27 472 c 0,17,18
 1011.27 424 1011.27 424 999.266 369 c 1,19,20
 963.266 184 963.266 184 831.766 80.5 c 128,-1,21
 700.266 -23 700.266 -23 519.266 -23 c 128,-1,22
 338.266 -23 338.266 -23 176.266 77 c 1,23,-1
 220.266 288 l 1,24,-1
 313.266 288 l 1,25,26
 309.266 264 309.266 264 309.266 243 c 0,27,28
 309.266 172 309.266 172 357.266 124 c 128,-1,29
 405.266 76 405.266 76 527.766 76 c 128,-1,30
 650.266 76 650.266 76 735.266 151.5 c 128,-1,31
 820.266 227 820.266 227 850.266 369 c 0,32,33
 862.266 422 862.266 422 862.266 480 c 128,-1,34
 862.266 538 862.266 538 829.266 586 c 0,0,1
EndSplineSet
EndChar

StartChar: six
Encoding: 273 54 17
Width: 1190
VWidth: 0
GlyphClass: 2
Flags: W
HStem: -34 100<489.972 762.648> 672 100<595.074 868.68> 1102 100<702.632 990.762>
VStem: 270.414 166<121.537 483.817> 919.414 167.006<261.754 619.89> 1035.41 93.01<895 921.594>
LayerCount: 2
Fore
SplineSet
919.414 476 m 0,0,1
 919.414 672 919.414 672 738.414 672 c 0,2,3
 626.414 672 626.414 672 552.414 596.5 c 128,-1,4
 478.414 521 478.414 521 449.414 378 c 0,5,6
 436.414 315 436.414 315 436.414 255 c 128,-1,7
 436.414 195 436.414 195 462.414 147 c 0,8,9
 506.414 66 506.414 66 616.414 66 c 128,-1,10
 726.414 66 726.414 66 801.914 144 c 128,-1,11
 877.414 222 877.414 222 907.414 369 c 0,12,13
 919.414 428 919.414 428 919.414 476 c 0,0,1
475.414 634 m 1,14,15
 603.414 772 603.414 772 774.914 772 c 128,-1,16
 946.414 772 946.414 772 1030.41 664 c 0,17,18
 1086.42 591 1086.42 591 1086.42 482 c 0,19,20
 1086.42 430 1086.42 430 1073.42 369 c 1,21,22
 1038.41 186 1038.41 186 908.414 76 c 128,-1,23
 778.414 -34 778.414 -34 587.914 -34 c 128,-1,24
 397.414 -34 397.414 -34 317.414 116 c 0,25,26
 270.414 204 270.414 204 270.414 317 c 128,-1,27
 270.414 430 270.414 430 294.414 546 c 1,28,29
 354.414 859 354.414 859 514.414 1030.5 c 128,-1,30
 674.414 1202 674.414 1202 904.414 1202 c 0,31,32
 1034.41 1202 1034.41 1202 1166.42 1141 c 1,33,-1
 1128.42 895 l 1,34,-1
 1035.41 895 l 1,35,36
 1036.41 909 1036.41 909 1036.41 922 c 0,37,38
 1036.41 996 1036.41 996 997.914 1049 c 128,-1,39
 959.414 1102 959.414 1102 869.414 1102 c 0,40,41
 717.414 1102 717.414 1102 620.914 987 c 128,-1,42
 524.414 872 524.414 872 475.414 634 c 1,14,15
EndSplineSet
EndChar

StartChar: seven
Encoding: 274 55 18
Width: 1024
VWidth: 0
GlyphClass: 2
Flags: W
HStem: 0 21G<307.012 443.027> 1006 164<400.012 972.012>
VStem: 307.012 123<0 123>
DStem2: 307.012 0 430.012 0 0.545429 0.838157<67.0877 1205.9>
LayerCount: 2
Fore
SplineSet
1125.01 1068 m 1,0,-1
 430.012 0 l 1,1,-1
 307.012 0 l 1,2,-1
 972.012 1006 l 1,3,-1
 400.012 1006 l 1,4,-1
 381.012 911 l 1,5,-1
 284.012 911 l 1,6,-1
 334.012 1170 l 1,7,-1
 1141.01 1170 l 1,8,-1
 1125.01 1068 l 1,0,-1
EndSplineSet
EndChar

StartChar: eight
Encoding: 275 56 19
Width: 1173
VWidth: 0
GlyphClass: 2
Flags: W
HStem: -34 100<455.351 753.845> 572 100<590.489 826.558> 1102 100<656.818 930.069>
VStem: 235.999 166<119.25 418.494> 386.999 159<711.846 988.568> 893.999 165.001<212.044 521.341> 970.999 160.001<789.32 1062.05>
LayerCount: 2
Fore
SplineSet
893.999 412 m 0,0,1
 893.999 462 893.999 462 861.999 506 c 0,2,3
 813.999 572 813.999 572 700.499 572 c 128,-1,4
 586.999 572 586.999 572 510.999 506 c 0,5,6
 401.999 411 401.999 411 401.999 227 c 0,7,8
 401.999 176 401.999 176 434.999 132 c 0,9,10
 484.999 66 484.999 66 596.499 66 c 128,-1,11
 707.999 66 707.999 66 784.999 132 c 0,12,13
 893.999 226 893.999 226 893.999 412 c 0,0,1
877.999 728 m 0,14,15
 970.999 808 970.999 808 970.999 964 c 0,16,17
 970.999 1007 970.999 1007 942.999 1045 c 1,18,19
 898.999 1102 898.999 1102 802.999 1102 c 128,-1,20
 706.999 1102 706.999 1102 640.999 1046 c 0,21,22
 545.999 966 545.999 966 545.999 810 c 0,23,24
 545.999 766 545.999 766 574.999 728 c 0,25,26
 617.999 672 617.999 672 714.999 672 c 128,-1,27
 811.999 672 811.999 672 877.999 728 c 0,14,15
827.999 623 m 1,28,29
 956.999 605 956.999 605 1017 523 c 0,30,31
 1059 466 1059 466 1059 388 c 0,32,33
 1059 353 1059 353 1051 314 c 0,34,35
 1020 147 1020 147 897.999 56.5 c 128,-1,36
 775.999 -34 775.999 -34 580.999 -34 c 128,-1,37
 385.999 -34 385.999 -34 298.999 56 c 0,38,39
 235.999 121 235.999 121 235.999 224 c 0,40,41
 235.999 410 235.999 410 359.999 522 c 0,42,43
 449.999 604 449.999 604 587.999 623 c 1,44,45
 474.999 644 474.999 644 422.999 714 c 0,46,47
 386.999 763 386.999 763 386.999 811 c 128,-1,48
 386.999 859 386.999 859 394.999 893 c 1,49,50
 421.999 1037 421.999 1037 534.999 1119.5 c 128,-1,51
 647.999 1202 647.999 1202 817.999 1202 c 128,-1,52
 987.999 1202 987.999 1202 1071 1120 c 0,53,54
 1131 1060 1131 1060 1131 967 c 0,55,56
 1131 808 1131 808 1026 714 c 0,57,58
 948.999 644 948.999 644 827.999 623 c 1,28,29
EndSplineSet
EndChar

StartChar: nine
Encoding: 276 57 20
Width: 1171
VWidth: 0
GlyphClass: 2
Flags: W
HStem: -34 100<417.909 705.387> 396 100<540.461 812.238> 1102 100<645.613 919.846>
VStem: 280.66 92<254.313 275> 321.66 168<545.392 906.246> 971.66 165<684.626 1049.32>
LayerCount: 2
Fore
SplineSet
932.66 534 m 1,0,1
 804.66 396 804.66 396 632.66 396 c 0,2,3
 462.66 396 462.66 396 378.66 504 c 0,4,5
 321.66 577 321.66 577 321.66 687 c 0,6,7
 321.66 739 321.66 739 334.66 799 c 1,8,9
 369.66 982 369.66 982 500.16 1092 c 128,-1,10
 630.66 1202 630.66 1202 820.66 1202 c 128,-1,11
 1010.66 1202 1010.66 1202 1090.66 1052 c 0,12,13
 1136.66 965 1136.66 965 1136.66 852.5 c 128,-1,14
 1136.66 740 1136.66 740 1112.66 622 c 1,15,16
 1052.66 309 1052.66 309 893.16 137.5 c 128,-1,17
 733.66 -34 733.66 -34 503.66 -34 c 0,18,19
 374.66 -34 374.66 -34 242.66 27 c 1,20,-1
 280.66 275 l 1,21,-1
 372.66 275 l 1,22,23
 371.66 264 371.66 264 371.66 254 c 0,24,25
 371.66 178 371.66 178 412.66 117 c 0,26,27
 446.66 66 446.66 66 538.66 66 c 0,28,29
 690.66 66 690.66 66 787.16 180.5 c 128,-1,30
 883.66 295 883.66 295 932.66 534 c 1,0,1
971.66 904 m 0,31,32
 971.66 1102 971.66 1102 791.66 1102 c 0,33,34
 680.66 1102 680.66 1102 606.16 1024 c 128,-1,35
 531.66 946 531.66 946 501.66 799 c 0,36,37
 489.66 738 489.66 738 489.66 689 c 0,38,39
 489.66 496 489.66 496 669.66 496 c 2,40,-1
 670.66 496 l 2,41,42
 780.66 496 780.66 496 854.66 571.5 c 128,-1,43
 928.66 647 928.66 647 958.66 790 c 0,44,45
 971.66 853 971.66 853 971.66 904 c 0,31,32
EndSplineSet
EndChar

StartChar: colon
Encoding: 277 58 21
Width: 600
VWidth: 0
GlyphClass: 2
Flags: W
HStem: 459 267<352.198 480.905>
VStem: 210.187 214<-7.61499 170.965> 309.187 214<505.417 683.769>
LayerCount: 2
Fore
SplineSet
231.187 -19 m 128,-1,1
 210.187 14 210.187 14 210.187 36 c 2,2,-1
 210.187 63 l 2,3,4
 210.187 122 210.187 122 252.187 168.5 c 128,-1,5
 294.187 215 294.187 215 337.687 215 c 128,-1,6
 381.187 215 381.187 215 402.687 180.5 c 128,-1,7
 424.187 146 424.187 146 424.187 120 c 0,8,9
 424.187 35 424.187 35 382.687 -9 c 128,-1,10
 341.187 -53 341.187 -53 297.187 -53 c 1,11,-1
 296.187 -52 l 1,12,0
 252.187 -52 252.187 -52 231.187 -19 c 128,-1,1
396.187 459 m 0,13,14
 309.187 459 309.187 459 309.187 581 c 0,15,16
 309.187 636 309.187 636 350.687 681 c 128,-1,17
 392.187 726 392.187 726 437.187 726 c 128,-1,18
 482.187 726 482.187 726 502.187 694 c 0,19,20
 523.187 664 523.187 664 523.187 636 c 0,21,22
 523.187 549 523.187 549 482.187 504 c 128,-1,23
 441.187 459 441.187 459 396.187 459 c 0,13,14
EndSplineSet
EndChar

StartChar: semicolon
Encoding: 278 59 22
Width: 667
VWidth: 0
GlyphClass: 2
Flags: W
VStem: 338.213 168<25.9375 149> 394.213 218<504.385 682.395>
LayerCount: 2
Fore
SplineSet
136.213 -185 m 1,0,1
 300.213 -80 300.213 -80 338.213 120 c 1,2,-1
 344.213 149 l 1,3,-1
 506.213 149 l 1,4,5
 473.213 15 473.213 15 395.713 -81 c 128,-1,6
 318.213 -177 318.213 -177 186.213 -248 c 1,7,-1
 136.213 -185 l 1,0,1
482.213 460 m 1,8,9
 394.213 460 394.213 460 394.213 581 c 0,10,11
 394.213 636 394.213 636 436.713 681 c 128,-1,12
 479.213 726 479.213 726 524.213 726 c 128,-1,13
 569.213 726 569.213 726 590.713 692 c 128,-1,14
 612.213 658 612.213 658 612.213 632 c 0,15,16
 612.213 547 612.213 547 570.213 503 c 128,-1,17
 528.213 459 528.213 459 483.213 459 c 1,18,-1
 482.213 460 l 1,8,9
EndSplineSet
EndChar

StartChar: less
Encoding: 279 60 23
Width: 1314
VWidth: 0
GlyphClass: 2
Flags: W
VStem: 217.395 236<304 703>
DStem2: 217.395 585 453.395 502 0.940122 0.340839<193.579 1010.69> 453.395 502 217.395 422 0.939821 -0.341666<0 817.112>
LayerCount: 2
Fore
SplineSet
1221.4 781 m 1,0,-1
 453.395 502 l 1,1,-1
 1221.4 223 l 1,2,-1
 1221.4 57 l 1,3,-1
 217.395 422 l 1,4,-1
 217.395 585 l 1,5,-1
 1221.4 949 l 1,6,-1
 1221.4 781 l 1,0,-1
EndSplineSet
EndChar

StartChar: equal
Encoding: 280 61 24
Width: 1419
VWidth: 0
GlyphClass: 2
Flags: W
HStem: 262 161<305.174 1309.18> 582 161<305.174 1309.18>
LayerCount: 2
Fore
SplineSet
305.174 743 m 1,0,-1
 1309.18 743 l 1,1,-1
 1309.18 582 l 1,2,-1
 305.174 582 l 1,3,-1
 305.174 743 l 1,0,-1
305.174 423 m 1,4,-1
 1309.18 423 l 1,5,-1
 1309.18 262 l 1,6,-1
 305.174 262 l 1,7,-1
 305.174 423 l 1,4,-1
EndSplineSet
EndChar

StartChar: greater
Encoding: 281 62 25
Width: 1279
VWidth: 0
GlyphClass: 2
Flags: W
VStem: 1042.75 232<306 700>
DStem2: 270.746 949 270.746 783 0.939821 -0.341667<56.7167 877.929> 270.746 223 270.746 57 0.939821 0.341667<0 821.212>
LayerCount: 2
Fore
SplineSet
270.746 783 m 1,0,-1
 270.746 949 l 1,1,-1
 1274.75 584 l 1,2,-1
 1274.75 422 l 1,3,-1
 270.746 57 l 1,4,-1
 270.746 223 l 1,5,-1
 1042.75 503 l 1,6,-1
 270.746 783 l 1,0,-1
EndSplineSet
EndChar

StartChar: question
Encoding: 282 63 26
Width: 934
VWidth: 0
GlyphClass: 2
Flags: W
HStem: 1102 100<488.342 774.955>
VStem: 301.577 80<912 980.533> 310.577 223<-6.61597 168.992> 417.577 102<294 396> 820.577 171<785.933 1056.83>
DStem2: 350.127 -53 452.127 -53 0.190809 0.981627<372.957 627.19>
LayerCount: 2
Fore
SplineSet
332.577 -19 m 128,-1,1
 310.577 14 310.577 14 310.577 35.5 c 128,-1,2
 310.577 57 310.577 57 310.577 64 c 0,3,4
 310.577 128 310.577 128 354.577 169 c 0,5,6
 402.577 215 402.577 215 443.577 215 c 0,7,8
 489.577 215 489.577 215 511.577 181 c 128,-1,9
 533.577 147 533.577 147 533.577 117 c 0,10,11
 533.577 36 533.577 36 490.577 -8 c 0,12,13
 446.577 -53 446.577 -53 401.577 -53 c 1,14,-1
 400.577 -52 l 1,15,0
 354.577 -52 354.577 -52 332.577 -19 c 128,-1,1
642.577 1102 m 0,16,17
 455.577 1102 455.577 1102 381.577 912 c 1,18,-1
 301.577 912 l 1,19,-1
 342.577 1108 l 1,20,21
 528.577 1202 528.577 1202 684.577 1202 c 128,-1,22
 840.577 1202 840.577 1202 927.577 1119 c 0,23,24
 991.577 1058 991.577 1058 991.577 965 c 0,25,26
 991.577 932 991.577 932 983.577 895 c 0,27,28
 925.577 604 925.577 604 564.577 525 c 1,29,-1
 519.577 294 l 1,30,-1
 417.577 294 l 1,31,-1
 472.577 580 l 1,32,33
 764.577 645 764.577 645 813.577 881 c 0,34,35
 820.577 914 820.577 914 820.577 958.5 c 128,-1,36
 820.577 1003 820.577 1003 788.577 1043 c 0,37,38
 742.577 1102 742.577 1102 642.577 1102 c 0,16,17
EndSplineSet
EndChar

StartChar: at
Encoding: 283 64 27
Width: 1736
VWidth: 0
GlyphClass: 2
Flags: W
HStem: -291 105<645.712 1080.33> 54 118<797.629 1011.52> 668 118<879.458 1130.2> 1036 106<876.888 1351.95>
VStem: 244.854 134<64.6738 533.114> 613.854 141<214.026 524.75> 1232.86 129<637 766> 1599.86 75<442.342 792.93>
DStem2: 1027.45 -291 1156.42 -291 0.190809 0.981627<488.125 505.283 536.049 833.267 943.411 1076.77>
LayerCount: 2
Fore
SplineSet
1285.86 -128 m 1,0,1
 1088.86 -291 1088.86 -291 830.854 -291 c 0,2,3
 687.854 -291 687.854 -291 566.854 -238.5 c 128,-1,4
 445.854 -186 445.854 -186 365.854 -86 c 1,5,6
 244.854 63 244.854 63 244.854 262 c 2,7,-1
 244.854 275 l 2,8,9
 244.854 498 244.854 498 365.854 702 c 0,10,11
 442.854 832 442.854 832 561.854 932.5 c 128,-1,12
 680.854 1033 680.854 1033 826.354 1087.5 c 128,-1,13
 971.854 1142 971.854 1142 1131.86 1142 c 128,-1,14
 1291.86 1142 1291.86 1142 1416.86 1077 c 128,-1,15
 1541.86 1012 1541.86 1012 1608.36 897 c 128,-1,16
 1674.86 782 1674.86 782 1674.86 649 c 0,17,18
 1674.86 594 1674.86 594 1663.86 536 c 0,19,20
 1622.86 326 1622.86 326 1471.86 203 c 128,-1,21
 1320.86 80 1320.86 80 1099.86 80 c 1,22,-1
 1123.86 205 l 1,23,24
 1007.85 54 1007.85 54 867.854 54 c 128,-1,25
 727.854 54 727.854 54 659.854 156 c 0,26,27
 613.854 225 613.854 225 613.854 321 c 0,28,29
 613.854 366 613.854 366 623.854 420 c 0,30,31
 655.854 584 655.854 584 759.854 685 c 128,-1,32
 863.854 786 863.854 786 1001.85 786 c 128,-1,33
 1139.86 786 1139.86 786 1207.86 635 c 1,34,-1
 1232.86 766 l 1,35,-1
 1361.86 766 l 1,36,-1
 1244.86 164 l 1,37,38
 1380.86 192 1380.86 192 1471.36 287.5 c 128,-1,39
 1561.86 383 1561.86 383 1589.86 527 c 0,40,41
 1599.86 578 1599.86 578 1599.86 618 c 128,-1,42
 1599.86 658 1599.86 658 1591.86 711 c 128,-1,43
 1583.86 764 1583.86 764 1543.86 827 c 0,44,45
 1480.86 929 1480.86 929 1372.36 982.5 c 128,-1,46
 1263.86 1036 1263.86 1036 1122.86 1036 c 128,-1,47
 981.854 1036 981.854 1036 822.854 970.5 c 128,-1,48
 663.854 905 663.854 905 547.354 760 c 128,-1,49
 430.854 615 430.854 615 393.854 425 c 0,50,51
 378.854 349 378.854 349 378.854 286 c 0,52,53
 378.854 112 378.854 112 453.854 12 c 0,54,55
 599.854 -186 599.854 -186 879.854 -186 c 0,56,57
 1080.86 -186 1080.86 -186 1254.86 -78 c 1,58,-1
 1285.86 -128 l 1,0,1
1158.86 382 m 1,59,-1
 1173.86 460 l 2,60,61
 1179.86 489 1179.86 489 1179.86 529.5 c 128,-1,62
 1179.86 570 1179.86 570 1149.86 610 c 0,63,64
 1105.86 668 1105.86 668 1013.85 668 c 128,-1,65
 921.854 668 921.854 668 855.354 603 c 128,-1,66
 788.854 538 788.854 538 764.854 420 c 0,67,68
 754.854 375 754.854 375 754.854 327 c 128,-1,69
 754.854 279 754.854 279 779.854 238 c 0,70,71
 819.854 172 819.854 172 912.354 172 c 128,-1,72
 1004.85 172 1004.85 172 1071.86 230.5 c 128,-1,73
 1138.86 289 1138.86 289 1158.86 382 c 1,59,-1
EndSplineSet
EndChar

StartChar: A
Encoding: 284 65 28
Width: 1386
VWidth: 0
GlyphClass: 2
Flags: W
HStem: 0 106<98.8037 200.804 310.804 411.804 889.804 1019.8 1209.8 1307.8> 343 108<525.804 948.804> 1150 20G<852.323 994.92>
DStem2: 200.804 106 310.804 106 0.529425 0.848356<58.2368 337.652 464.746 1064.92> 990.804 1170 843.804 960 0.201597 -0.979468<176.054 695.771 805.988 1048>
LayerCount: 2
Fore
SplineSet
525.804 451 m 1,0,-1
 948.804 451 l 1,1,-1
 843.804 960 l 1,2,-1
 525.804 451 l 1,0,-1
82.8037 0 m 1,3,-1
 98.8037 106 l 1,4,-1
 200.804 106 l 1,5,-1
 864.804 1170 l 1,6,-1
 990.804 1170 l 1,7,-1
 1209.8 106 l 1,8,-1
 1323.8 106 l 1,9,-1
 1307.8 0 l 1,10,-1
 873.804 0 l 1,11,-1
 889.804 106 l 1,12,-1
 1019.8 106 l 1,13,-1
 970.804 343 l 1,14,-1
 458.804 343 l 1,15,-1
 310.804 106 l 1,16,-1
 428.804 106 l 1,17,-1
 411.804 0 l 1,18,-1
 82.8037 0 l 1,3,-1
EndSplineSet
EndChar

StartChar: B
Encoding: 285 66 29
Width: 1230
VWidth: 0
GlyphClass: 2
Flags: W
HStem: 0 106<123.624 271.624 440.624 873> 578 107<553.624 938.333> 1063 107<334.624 457.624 626.624 1000.75>
VStem: 1004.63 196<242.189 530.148> 1045.63 204<781.133 1025.21>
DStem2: 251.02 0 420.02 0 0.190809 0.981627<140.231 621.113 730.154 1082.89>
LayerCount: 2
Fore
SplineSet
440.624 106 m 1,0,-1
 674.624 106 l 2,1,2
 815.624 106 815.624 106 892.624 162.5 c 128,-1,3
 969.624 219 969.624 219 995.624 343 c 0,4,5
 1004.63 384 1004.63 384 1004.63 434.5 c 128,-1,6
 1004.63 485 1004.63 485 968.624 522 c 0,7,8
 914.624 578 914.624 578 770.624 578 c 2,9,-1
 532.624 578 l 1,10,-1
 440.624 106 l 1,0,-1
553.624 685 m 1,11,-1
 751.624 685 l 1,12,13
 879.624 685 879.624 685 949.624 730 c 0,14,15
 1045.63 792 1045.63 792 1045.63 946 c 0,16,17
 1045.63 988 1045.63 988 1002.13 1025.5 c 128,-1,18
 958.624 1063 958.624 1063 828.624 1063 c 2,19,-1
 626.624 1063 l 1,20,-1
 553.624 685 l 1,11,-1
930.624 1170 m 2,21,22
 1249.63 1170 1249.63 1170 1249.63 952 c 0,23,24
 1249.63 796 1249.63 796 1143.63 712 c 0,25,26
 1066.63 652 1066.63 652 939.624 638 c 1,27,28
 1089.63 618 1089.63 618 1154.63 542 c 0,29,30
 1200.63 488 1200.63 488 1200.63 409 c 0,31,32
 1200.63 376 1200.63 376 1192.63 338 c 0,33,34
 1157.63 164 1157.63 164 1029.13 82 c 128,-1,35
 900.624 0 900.624 0 661.624 0 c 2,36,-1
 107.624 0 l 1,37,-1
 123.624 106 l 1,38,-1
 271.624 106 l 1,39,-1
 457.624 1063 l 1,40,-1
 317.624 1063 l 1,41,-1
 334.624 1170 l 1,42,-1
 930.624 1170 l 2,21,22
EndSplineSet
EndChar

StartChar: C
Encoding: 286 67 30
Width: 1225
VWidth: 0
GlyphClass: 2
Flags: W
HStem: -34 107<487.18 861.186> 1095 108<670.876 1066.91>
VStem: 189.477 174<215.341 675.129> 1172.47 93<815 887.507>
LayerCount: 2
Fore
SplineSet
663.477 73 m 0,0,1
 924.477 73 924.477 73 1049.47 316 c 1,2,-1
 1194.47 316 l 1,3,4
 1024.47 -34 1024.47 -34 647.477 -34 c 0,5,6
 415.477 -34 415.477 -34 291.477 122 c 1,7,8
 189.477 249 189.477 249 189.477 431 c 1,9,10
 189.477 503 189.477 503 205.477 584 c 0,11,12
 258.477 862 258.477 862 449.477 1032.5 c 128,-1,13
 640.477 1203 640.477 1203 899.477 1203 c 0,14,15
 1089.47 1203 1089.47 1203 1317.47 1078 c 1,16,-1
 1265.47 815 l 1,17,-1
 1172.47 815 l 1,18,19
 1172.47 959 1172.47 959 1098.47 1027 c 128,-1,20
 1024.47 1095 1024.47 1095 852.477 1095 c 128,-1,21
 680.477 1095 680.477 1095 557.977 965 c 128,-1,22
 435.477 835 435.477 835 385.477 584 c 0,23,24
 363.477 478 363.477 478 363.477 378 c 128,-1,25
 363.477 278 363.477 278 404.477 203 c 0,26,27
 476.477 73 476.477 73 663.477 73 c 0,0,1
EndSplineSet
EndChar

StartChar: D
Encoding: 287 68 31
Width: 1332
VWidth: 0
GlyphClass: 2
Flags: W
HStem: 0 106<117.184 265.184 434.184 819.216> 1063 107<328.184 451.184 620.184 993.408>
VStem: 1166.19 200<486.754 907.527>
DStem2: 244.58 0 413.58 0 0.190809 0.981627<140.231 1082.89>
LayerCount: 2
Fore
SplineSet
434.184 106 m 1,0,-1
 580.184 106 l 2,1,2
 808.184 106 808.184 106 955.684 230 c 128,-1,3
 1103.19 354 1103.19 354 1151.19 586 c 0,4,5
 1166.19 658 1166.19 658 1166.19 690 c 2,6,7
 1166.19 727 l 2,8,9
 1166.19 858 1166.19 858 1100.19 940 c 0,10,11
 1001.19 1063 1001.19 1063 768.184 1063 c 1,12,-1
 620.184 1063 l 1,13,-1
 434.184 106 l 1,0,-1
101.184 0 m 1,14,-1
 117.184 106 l 1,15,-1
 265.184 106 l 1,16,-1
 451.184 1063 l 1,17,-1
 311.184 1063 l 1,18,-1
 328.184 1170 l 1,19,-1
 807.184 1170 l 2,20,21
 1118.19 1170 1118.19 1170 1263.19 1016 c 0,22,23
 1366.19 906 1366.19 906 1366.19 735 c 0,24,25
 1366.19 666 1366.19 666 1349.19 586 c 1,26,27
 1294.19 310 1294.19 310 1090.19 155 c 128,-1,28
 886.184 0 886.184 0 577.184 0 c 2,29,-1
 101.184 0 l 1,14,-1
EndSplineSet
EndChar

StartChar: E
Encoding: 288 69 32
Width: 1265
VWidth: 0
GlyphClass: 2
Flags: W
HStem: 0 123<477.706 1050.7> 0 106<156.706 304.706> 569 123<587.706 962.706> 1047 123<656.706 1229.7> 1063 107<367.706 490.706>
VStem: 942.706 101.994<463 564.994> 1019.7 102<757 859> 1079.7 102<170 272> 1199.7 102<889 991>
DStem2: 284.102 0 453.797 0 0.190809 0.981627<157.682 612.088 737.216 1082.89> 852.708 0 954.702 0 0.190809 0.981627<491.127 579.534 704.853 875.081> 1026.79 0 1128.7 0 0.190809 0.981627<125.302 277.098 925.122 1066.48>
LayerCount: 2
Fore
SplineSet
140.706 0 m 1,0,-1
 156.706 106 l 1,1,-1
 304.706 106 l 1,2,-1
 490.706 1063 l 1,3,-1
 350.706 1063 l 1,4,-1
 367.706 1170 l 1,5,-1
 1355.7 1170 l 1,6,-1
 1301.7 889 l 1,7,-1
 1199.7 889 l 1,8,-1
 1229.7 1047 l 1,9,-1
 656.706 1047 l 1,10,-1
 587.706 692 l 1,11,-1
 986.702 692 l 1,12,-1
 1019.7 859 l 1,13,-1
 1121.7 859 l 1,14,-1
 1044.7 463 l 1,15,-1
 942.706 463 l 1,16,-1
 962.706 569 l 1,17,-1
 564.706 569 l 1,18,-1
 477.706 123 l 1,19,-1
 1050.7 123 l 1,20,-1
 1079.7 272 l 1,21,-1
 1181.7 272 l 1,22,-1
 1128.7 0 l 1,23,-1
 140.706 0 l 1,0,-1
EndSplineSet
EndChar

StartChar: F
Encoding: 289 70 33
Width: 1201
VWidth: 0
GlyphClass: 2
Flags: W
HStem: 0 106<1.50293 149.503 318.503 497.503> 567 123<431.503 832.497> 1047 123<501.503 1089.5> 1063 107<212.503 335.503>
VStem: 812.503 101.994<465 566.994> 892.497 102<775 877> 1068.5 102<942 1044>
DStem2: 128.899 0 297.899 0 0.190809 0.981627<140.231 609.934 735.062 1082.89> 722.116 0 824.11 0 0.190809 0.981627<493.165 577.644 702.964 893.397>
LayerCount: 2
Fore
SplineSet
-14.4971 0 m 1,0,-1
 1.50293 106 l 1,1,-1
 149.503 106 l 1,2,-1
 335.503 1063 l 1,3,-1
 195.503 1063 l 1,4,-1
 212.503 1170 l 1,5,-1
 1215.5 1170 l 1,6,-1
 1170.5 942 l 1,7,-1
 1068.5 942 l 1,8,-1
 1089.5 1047 l 1,9,-1
 501.503 1047 l 1,10,-1
 431.503 690 l 1,11,-1
 856.497 690 l 1,12,-1
 892.497 877 l 1,13,-1
 994.497 877 l 1,14,-1
 914.497 465 l 1,15,-1
 812.503 465 l 1,16,-1
 832.497 567 l 1,17,-1
 408.503 567 l 1,18,-1
 318.503 106 l 1,19,-1
 513.503 106 l 1,20,-1
 497.503 0 l 1,21,-1
 -14.4971 0 l 1,0,-1
EndSplineSet
EndChar

StartChar: G
Encoding: 290 71 34
Width: 1312
VWidth: 0
GlyphClass: 2
Flags: W
HStem: -34 107<520.992 975.265> 438 108<917.266 1122.26> 1095 108<705.902 1125.57>
VStem: 203.266 181<212.482 676.603> 1233.26 92<820 891.951>
DStem2: 1030.52 -34 1198.66 -34 0.190809 0.981627<165.271 480.832>
LayerCount: 2
Fore
SplineSet
1233.26 820 m 1,0,1
 1233.26 960 1233.26 960 1158.26 1027.5 c 128,-1,2
 1083.26 1095 1083.26 1095 923.266 1095 c 0,3,4
 510.266 1095 510.266 1095 405.266 584 c 0,5,6
 384.266 484 384.266 484 384.266 382 c 128,-1,7
 384.266 280 384.266 280 432.266 202 c 0,8,9
 511.266 73 511.266 73 714.266 73 c 2,10,11
 717.266 73 l 2,12,13
 899.266 73 899.266 73 1067.26 155 c 1,14,-1
 1122.26 438 l 1,15,-1
 901.266 438 l 1,16,-1
 917.266 546 l 1,17,-1
 1311.26 546 l 1,18,-1
 1226.26 108 l 1,19,20
 984.266 -34 984.266 -34 706.266 -34 c 128,-1,21
 428.266 -34 428.266 -34 296.266 134 c 0,22,23
 203.266 252 203.266 252 203.266 425 c 0,24,25
 203.266 499 203.266 499 220.266 584 c 0,26,27
 276.266 867 276.266 867 473.766 1035 c 128,-1,28
 671.266 1203 671.266 1203 950.266 1203 c 0,29,30
 1150.26 1203 1150.26 1203 1378.26 1086 c 1,31,-1
 1325.26 820 l 1,32,-1
 1233.26 820 l 1,0,1
EndSplineSet
EndChar

StartChar: H
Encoding: 291 72 35
Width: 1522
VWidth: 0
GlyphClass: 2
Flags: W
HStem: 0 106<143.804 291.804 460.804 595.804 946.804 1095.8 1263.8 1398.8> 570 123<574.804 1186.8> 1063 107<354.804 477.804 646.804 795.804 1158.8 1282.8 1449.8 1598.8>
DStem2: 271.2 0 440.2 0 0.190809 0.981627<140.231 612.879 738.198 1082.89> 1075.2 0 1243.2 0 0.190809 0.981627<140.04 580.823 706.142 1083.08>
LayerCount: 2
Fore
SplineSet
127.804 0 m 1,0,-1
 143.804 106 l 1,1,-1
 291.804 106 l 1,2,-1
 477.804 1063 l 1,3,-1
 337.804 1063 l 1,4,-1
 354.804 1170 l 1,5,-1
 811.804 1170 l 1,6,-1
 795.804 1063 l 1,7,-1
 646.804 1063 l 1,8,-1
 574.804 693 l 1,9,-1
 1210.8 693 l 1,10,-1
 1282.8 1063 l 1,11,-1
 1140.8 1063 l 1,12,-1
 1158.8 1170 l 1,13,-1
 1614.8 1170 l 1,14,-1
 1598.8 1063 l 1,15,-1
 1449.8 1063 l 1,16,-1
 1263.8 106 l 1,17,-1
 1415.8 106 l 1,18,-1
 1398.8 0 l 1,19,-1
 930.804 0 l 1,20,-1
 946.804 106 l 1,21,-1
 1095.8 106 l 1,22,-1
 1186.8 570 l 1,23,-1
 550.804 570 l 1,24,-1
 460.804 106 l 1,25,-1
 612.804 106 l 1,26,-1
 595.804 0 l 1,27,-1
 127.804 0 l 1,0,-1
EndSplineSet
EndChar

StartChar: I
Encoding: 292 73 36
Width: 720
VWidth: 0
GlyphClass: 2
Flags: W
HStem: 0 106<143.803 291.803 460.803 596.803> 1063 107<354.803 477.803 646.803 795.803>
DStem2: 271.199 0 440.199 0 0.190809 0.981627<140.231 1082.89>
LayerCount: 2
Fore
SplineSet
460.803 106 m 1,0,-1
 612.803 106 l 1,1,-1
 596.803 0 l 1,2,-1
 127.803 0 l 1,3,-1
 143.803 106 l 1,4,-1
 291.803 106 l 1,5,-1
 477.803 1063 l 1,6,-1
 337.803 1063 l 1,7,-1
 354.803 1170 l 1,8,-1
 811.803 1170 l 1,9,-1
 795.803 1063 l 1,10,-1
 646.803 1063 l 1,11,-1
 460.803 106 l 1,0,-1
EndSplineSet
EndChar

StartChar: J
Encoding: 293 74 37
Width: 478
VWidth: 0
GlyphClass: 2
Flags: W
HStem: -334 107<-124.573 114.173> 1063 107<252.502 407.502 575.502 724.498>
VStem: -228.498 94<-122.374 -79>
DStem2: 135.953 -334 304.832 -334 0.190809 0.981627<167.223 1423.15>
LayerCount: 2
Fore
SplineSet
-138.498 -123 m 0,0,1
 -138.498 -227 -138.498 -227 -20.498 -227 c 1,2,3
 76.502 -227 76.502 -227 126.502 -170.5 c 128,-1,4
 176.502 -114 176.502 -114 211.502 51 c 1,5,-1
 407.502 1063 l 1,6,-1
 235.502 1063 l 1,7,-1
 252.502 1170 l 1,8,-1
 741.498 1170 l 1,9,-1
 724.498 1063 l 1,10,-1
 575.502 1063 l 1,11,-1
 378.502 45 l 2,12,13
 339.502 -156 339.502 -156 241.002 -245 c 128,-1,14
 142.502 -334 142.502 -334 -37.498 -334 c 0,15,16
 -155.498 -334 -155.498 -334 -263.498 -266 c 1,17,-1
 -228.498 -79 l 1,18,-1
 -134.498 -79 l 1,19,20
 -138.498 -103 -138.498 -103 -138.498 -123 c 0,0,1
EndSplineSet
EndChar

StartChar: K
Encoding: 294 75 38
Width: 1410
VWidth: 0
GlyphClass: 2
Flags: W
HStem: 0 106<123.804 271.804 440.804 579.804 1189.8 1306.8> 1063 107<334.804 457.804 626.804 775.804 1064.8 1168.8 1334.8 1466.8>
DStem2: 251.2 0 420.2 0 0.190809 0.981627<140.231 595.618 688.381 1082.89> 707.804 642 527.804 553 0.667696 -0.744434<0 688.916> 545.804 644 707.804 642 0.830211 0.55745<133.379 750.789>
LayerCount: 2
Fore
SplineSet
107.804 0 m 1,0,-1
 123.804 106 l 1,1,-1
 271.804 106 l 1,2,-1
 457.804 1063 l 1,3,-1
 317.804 1063 l 1,4,-1
 334.804 1170 l 1,5,-1
 791.804 1170 l 1,6,-1
 775.804 1063 l 1,7,-1
 626.804 1063 l 1,8,-1
 545.804 644 l 1,9,-1
 1168.8 1063 l 1,10,-1
 1047.8 1063 l 1,11,-1
 1064.8 1170 l 1,12,-1
 1482.8 1170 l 1,13,-1
 1466.8 1063 l 1,14,-1
 1334.8 1063 l 1,15,-1
 707.804 642 l 1,16,-1
 1189.8 106 l 1,17,-1
 1322.8 106 l 1,18,-1
 1306.8 0 l 1,19,-1
 1023.8 0 l 1,20,-1
 527.804 553 l 1,21,-1
 440.804 106 l 1,22,-1
 596.804 106 l 1,23,-1
 579.804 0 l 1,24,-1
 107.804 0 l 1,0,-1
EndSplineSet
EndChar

StartChar: L
Encoding: 295 76 39
Width: 1176
VWidth: 0
GlyphClass: 2
Flags: W
HStem: 0 123<443.304 996.304> 0 106<122.304 270.304> 1063 107<333.304 456.304 626.304 774.304>
VStem: 1031.3 102<202 304>
DStem2: 249.7 0 419.395 0 0.190809 0.981627<157.682 1082.89> 972.395 0 1074.3 0 0.190809 0.981627<125.302 309.654>
LayerCount: 2
Fore
SplineSet
106.304 0 m 1,0,-1
 122.304 106 l 1,1,-1
 270.304 106 l 1,2,-1
 456.304 1063 l 1,3,-1
 316.304 1063 l 1,4,-1
 333.304 1170 l 1,5,-1
 791.304 1170 l 1,6,-1
 774.304 1063 l 1,7,-1
 626.304 1063 l 1,8,-1
 443.304 123 l 1,9,-1
 996.304 123 l 1,10,-1
 1031.3 304 l 1,11,-1
 1133.3 304 l 1,12,-1
 1074.3 0 l 1,13,-1
 106.304 0 l 1,0,-1
EndSplineSet
EndChar

StartChar: M
Encoding: 296 77 40
Width: 1806
VWidth: 0
GlyphClass: 2
Flags: W
HStem: 0 106<146.214 294.214 397.214 536.214 1226.21 1375.21 1544.21 1685.21> 1063 107<348.214 480.214 1730.21 1886.21>
DStem2: 273.61 0 376.61 0 0.190809 0.981627<127.637 1048.42> 709.214 1170 572.214 1010 0.317962 -0.948104<108.136 857.611> 982.211 357 964.214 190 0.593806 0.804608<0 790.219> 1354.61 0 1523.61 0 0.190809 0.981627<140.231 948.356>
LayerCount: 2
Fore
SplineSet
130.214 0 m 1,0,-1
 146.214 106 l 1,1,-1
 294.214 106 l 1,2,-1
 480.214 1063 l 1,3,-1
 331.214 1063 l 1,4,-1
 348.214 1170 l 1,5,-1
 709.214 1170 l 1,6,-1
 982.211 357 l 1,7,-1
 1582.21 1170 l 1,8,-1
 1903.21 1170 l 1,9,-1
 1886.21 1063 l 1,10,-1
 1730.21 1063 l 1,11,-1
 1544.21 106 l 1,12,-1
 1701.21 106 l 1,13,-1
 1685.21 0 l 1,14,-1
 1211.21 0 l 1,15,-1
 1226.21 106 l 1,16,-1
 1375.21 106 l 1,17,-1
 1535.21 931 l 1,18,-1
 964.214 190 l 1,19,-1
 847.214 190 l 1,20,-1
 572.214 1010 l 1,21,-1
 397.214 106 l 1,22,-1
 553.214 106 l 1,23,-1
 536.214 0 l 1,24,-1
 130.214 0 l 1,0,-1
EndSplineSet
EndChar

StartChar: N
Encoding: 297 78 41
Width: 1539
VWidth: 0
GlyphClass: 2
Flags: W
HStem: 0 106<134.113 291.113 393.113 540.113> 1063 107<345.113 477.113 1241.12 1372.12 1474.12 1632.12>
DStem2: 266.038 -23 368.038 -23 0.190809 0.981627<150.877 1027.92> 662.113 1170 560.113 967 0.532001 -0.846744<117.625 1049.62> 1161.03 -23 1263.12 -23 0.190809 0.981627<309.69 1106.33>
LayerCount: 2
Fore
SplineSet
118.113 0 m 1,0,-1
 134.113 106 l 1,1,-1
 291.113 106 l 1,2,-1
 477.113 1063 l 1,3,-1
 328.113 1063 l 1,4,-1
 345.113 1170 l 1,5,-1
 662.113 1170 l 1,6,-1
 1220.12 281 l 1,7,-1
 1372.12 1063 l 1,8,-1
 1223.12 1063 l 1,9,-1
 1241.12 1170 l 1,10,-1
 1648.12 1170 l 1,11,-1
 1632.12 1063 l 1,12,-1
 1474.12 1063 l 1,13,-1
 1263.12 -23 l 1,14,-1
 1182.12 -23 l 1,15,-1
 560.113 967 l 1,16,-1
 393.113 106 l 1,17,-1
 557.113 106 l 1,18,-1
 540.113 0 l 1,19,-1
 118.113 0 l 1,0,-1
EndSplineSet
EndChar

StartChar: O
Encoding: 298 79 42
Width: 1321
VWidth: 0
GlyphClass: 2
Flags: W
HStem: -34 107<475.971 860.864> 1095 108<667.333 1063.56>
VStem: 181.724 171.5<217.358 663.061> 1194.72 173<512.959 966.134>
LayerCount: 2
Fore
SplineSet
664.724 73 m 0,0,1
 849.724 73 849.724 73 976.724 199 c 0,2,3
 1105.72 326 1105.72 326 1162.72 555 c 0,4,5
 1194.72 684 1194.72 684 1194.72 781 c 0,6,7
 1194.72 1095 1194.72 1095 867.724 1095 c 0,8,-1
 864.724 1095 l 0,9,10
 478.724 1095 478.724 1095 377.724 584 c 1,11,12
 353.224 468.5 353.224 468.5 353.224 421.906 c 0,13,14
 353.224 415.25 353.224 415.25 353.724 410 c 0,15,16
 354.724 398 354.724 398 354.724 388 c 0,17,18
 354.724 73 354.724 73 664.724 73 c 0,0,1
1367.72 766 m 0,19,-1
 1367.72 762 l 0,20,21
 1367.72 435 1367.72 435 1181.72 201 c 0,22,23
 994.724 -34 994.724 -34 646.724 -34 c 0,24,25
 404.724 -34 404.724 -34 283.724 122 c 0,26,27
 181.724 254 181.724 254 181.724 425 c 0,28,29
 181.724 727 181.724 727 362.724 948 c 0,30,31
 571.724 1203 571.724 1203 891.724 1203 c 1,32,-1
 893.724 1203 l 2,33,34
 1212.72 1203 1212.72 1203 1309.72 1020 c 1,35,36
 1367.72 890 1367.72 890 1367.72 766 c 0,19,-1
EndSplineSet
EndChar

StartChar: P
Encoding: 299 80 43
Width: 1156
VWidth: 0
GlyphClass: 2
Flags: W
HStem: 0 106<127.931 275.931 444.931 608.931> 500 108<542.931 917.53> 1063 107<338.931 461.931 630.931 998.546>
VStem: 1042.93 177<737.139 1016.62>
DStem2: 255.327 0 424.327 0 0.190809 0.981627<140.231 541.684 651.707 1082.89>
LayerCount: 2
Fore
SplineSet
1042.93 905 m 0,0,1
 1042.93 1063 1042.93 1063 840.931 1063 c 2,2,-1
 630.931 1063 l 1,3,-1
 542.931 608 l 1,4,-1
 748.931 608 l 2,5,6
 865.931 608 865.931 608 938.931 667 c 128,-1,7
 1011.93 726 1011.93 726 1034.93 836 c 0,8,9
 1042.93 874 1042.93 874 1042.93 905 c 0,0,1
111.931 0 m 1,10,-1
 127.931 106 l 1,11,-1
 275.931 106 l 1,12,-1
 461.931 1063 l 1,13,-1
 321.931 1063 l 1,14,-1
 338.931 1170 l 1,15,-1
 892.931 1170 l 2,16,17
 1068.93 1170 1068.93 1170 1156.93 1080 c 0,18,19
 1219.93 1015 1219.93 1015 1219.93 916 c 0,20,21
 1219.93 878 1219.93 878 1210.93 835 c 0,22,23
 1181.93 682 1181.93 682 1061.93 591 c 128,-1,24
 941.931 500 941.931 500 766.931 500 c 2,25,-1
 521.931 500 l 1,26,-1
 444.931 106 l 1,27,-1
 625.931 106 l 1,28,-1
 608.931 0 l 1,29,-1
 111.931 0 l 1,10,-1
EndSplineSet
EndChar

StartChar: Q
Encoding: 300 81 44
Width: 1316
VWidth: 0
GlyphClass: 2
Flags: W
HStem: -278 186<847.827 1178.53> -34 107<488.525 692.099> 1095 108<673.912 1055.31>
VStem: 178.532 184<210.349 683.458> 1179.53 185<485.849 956.569>
LayerCount: 2
Fore
SplineSet
782.532 -18 m 1,0,1
 844.532 -92 844.532 -92 1011.53 -92 c 2,2,-1
 1208.53 -92 l 1,3,-1
 1178.53 -278 l 1,4,-1
 1087.53 -278 l 2,5,6
 879.532 -278 879.532 -278 793.532 -196 c 1,7,8
 708.532 -134 708.532 -134 672.532 -34 c 1,9,10
 398.532 -34 398.532 -34 268.532 134 c 0,11,12
 178.532 250 178.532 250 178.532 426 c 0,13,14
 178.532 500 178.532 500 200.532 614 c 128,-1,15
 222.532 728 222.532 728 288.532 842 c 0,16,17
 356.532 959 356.532 959 452.532 1040 c 0,18,19
 645.532 1203 645.532 1203 898.032 1203 c 128,-1,20
 1150.53 1203 1150.53 1203 1276.53 1033 c 0,21,22
 1364.53 914 1364.53 914 1364.53 742 c 0,23,24
 1364.53 669 1364.53 669 1348.53 585 c 0,25,26
 1302.53 349 1302.53 349 1152.03 188.5 c 128,-1,27
 1001.53 28 1001.53 28 782.532 -18 c 1,0,1
362.532 397 m 0,28,29
 362.532 73 362.532 73 669.532 73 c 0,30,31
 861.532 73 861.532 73 985.532 202 c 128,-1,32
 1109.53 331 1109.53 331 1159.53 584 c 0,33,34
 1179.53 688 1179.53 688 1179.53 771 c 0,35,36
 1179.53 1095 1179.53 1095 873.532 1095 c 0,37,38
 680.532 1095 680.532 1095 556.532 966 c 128,-1,39
 432.532 837 432.532 837 382.532 584 c 0,40,41
 362.532 481 362.532 481 362.532 397 c 0,28,29
EndSplineSet
EndChar

StartChar: R
Encoding: 301 82 45
Width: 1410
VWidth: 0
GlyphClass: 2
Flags: W
HStem: 0 106<119.804 267.804 436.804 592.804 1184.8 1310.8> 531 108<540.804 828.544> 1063 107<330.804 453.804 622.804 1011.75>
VStem: 1054.8 231<758.299 1022.08>
DStem2: 247.2 0 416.2 0 0.190809 0.981627<140.231 573.259 683.282 1082.89> 1074.8 426 903.804 373 0.324575 -0.94586<-150.126 338.378>
LayerCount: 2
Fore
SplineSet
932.804 577 m 1,0,1
 1036.8 548 1036.8 548 1074.8 426 c 1,2,-1
 1184.8 106 l 1,3,-1
 1326.8 106 l 1,4,-1
 1310.8 0 l 1,5,-1
 1031.8 0 l 1,6,-1
 903.804 373 l 2,7,8
 869.804 473 869.804 473 829.804 502 c 128,-1,9
 789.804 531 789.804 531 706.804 531 c 2,10,-1
 519.804 531 l 1,11,-1
 436.804 106 l 1,12,-1
 609.804 106 l 1,13,-1
 592.804 0 l 1,14,-1
 103.804 0 l 1,15,-1
 119.804 106 l 1,16,-1
 267.804 106 l 1,17,-1
 453.804 1063 l 1,18,-1
 313.804 1063 l 1,19,-1
 330.804 1170 l 1,20,-1
 962.804 1170 l 2,21,22
 1143.8 1170 1143.8 1170 1225.8 1088 c 0,23,24
 1285.8 1028 1285.8 1028 1285.8 931 c 0,25,26
 1285.8 895 1285.8 895 1277.8 855 c 0,27,28
 1227.8 611 1227.8 611 932.804 577 c 1,0,1
1054.8 918 m 2,29,30
 1054.8 1063 1054.8 1063 860.804 1063 c 0,31,32
 741.804 1063 741.804 1063 622.804 1063 c 1,33,-1
 540.804 639 l 1,34,-1
 771.804 639 l 2,35,36
 889.804 639 889.804 639 956.804 691.5 c 128,-1,37
 1023.8 744 1023.8 744 1047.8 852 c 0,38,39
 1054.8 884 1054.8 884 1054.8 900 c 2,40,-1
 1054.8 918 l 2,29,30
EndSplineSet
EndChar

StartChar: S
Encoding: 302 83 46
Width: 1096
VWidth: 0
GlyphClass: 2
Flags: W
HStem: -34 108<349.873 755.299> 1095 108<549.828 935.705>
VStem: 197.136 95<262.939 328> 286.136 164<683.5 976.901> 874.136 167.994<211.179 454.5> 994.136 92.994<866 902.437>
DStem2: 665.136 705 535.136 518 0.955064 -0.296399<-195.634 260.554>
LayerCount: 2
Fore
SplineSet
755.136 1095 m 0,0,1
 450.136 1095 450.136 1095 450.136 858 c 0,2,3
 450.136 824 450.136 824 484.136 786.5 c 128,-1,4
 518.136 749 518.136 749 665.136 705 c 1,5,-1
 801.136 663 l 1,6,7
 952.136 613 952.136 613 1006.13 535 c 0,8,9
 1042.13 483 1042.13 483 1042.13 426 c 128,-1,10
 1042.13 369 1042.13 369 1033.13 326 c 1,11,12
 966.136 -34 966.136 -34 531.136 -34 c 0,13,14
 337.136 -34 337.136 -34 145.136 67 c 1,15,-1
 197.136 328 l 1,16,-1
 292.136 328 l 1,17,18
 286.136 292 286.136 292 286.136 262 c 0,19,20
 286.136 182 286.136 182 339.136 128 c 128,-1,21
 392.136 74 392.136 74 536.136 74 c 0,22,23
 537.136 74 537.136 74 538.136 73 c 1,24,25
 828.136 73 828.136 73 869.136 272 c 0,26,27
 874.136 297 874.136 297 874.136 330 c 128,-1,28
 874.136 363 874.136 363 844.136 398.5 c 128,-1,29
 814.136 434 814.136 434 680.136 473 c 1,30,-1
 535.136 518 l 1,31,32
 286.136 603 286.136 603 286.136 764 c 0,33,34
 286.136 1001 286.136 1001 448.136 1116 c 0,35,36
 570.136 1203 570.136 1203 748.636 1203 c 128,-1,37
 927.136 1203 927.136 1203 1135.13 1114 c 1,38,-1
 1087.13 866 l 1,39,-1
 994.136 866 l 1,40,41
 996.136 885 996.136 885 996.136 903 c 0,42,43
 996.136 996 996.136 996 942.136 1045.5 c 128,-1,44
 888.136 1095 888.136 1095 755.136 1095 c 0,0,1
EndSplineSet
EndChar

StartChar: T
Encoding: 303 84 47
Width: 1313
VWidth: 0
GlyphClass: 2
Flags: W
HStem: 0 106<440.073 590.073 758.073 892.073> 1051 119<423.073 774.073 941.073 1298.07>
VStem: 292.073 102<904 1006> 1276.07 102<935 1037>
DStem2: 116.353 0 218.353 0 0.190809 0.981627<940.382 1090.22> 569.469 0 737.469 0 0.190809 0.981627<140.04 1070.73>
LayerCount: 2
Fore
SplineSet
425.073 0 m 1,0,-1
 440.073 106 l 1,1,-1
 590.073 106 l 1,2,-1
 774.073 1051 l 1,3,-1
 423.073 1051 l 1,4,-1
 394.073 904 l 1,5,-1
 292.073 904 l 1,6,-1
 344.073 1170 l 1,7,-1
 1424.07 1170 l 1,8,-1
 1378.07 935 l 1,9,-1
 1276.07 935 l 1,10,-1
 1298.07 1051 l 1,11,-1
 941.073 1051 l 1,12,-1
 758.073 106 l 1,13,-1
 909.073 106 l 1,14,-1
 892.073 0 l 1,15,-1
 425.073 0 l 1,0,-1
EndSplineSet
EndChar

StartChar: U
Encoding: 304 85 48
Width: 1480
VWidth: 0
GlyphClass: 2
Flags: W
HStem: -24 132<586.122 1005.76> 1063 107<345.023 469.023 637.023 786.023 1194.03 1318.03 1420.03 1569.03>
VStem: 334.023 171<180.565 595.133>
DStem2: 258.222 -24 425.306 -24 0.190809 0.981627<384.73 1107.25> 1106.31 -24 1208.23 -24 0.190809 0.981627<272.113 1107.43>
LayerCount: 2
Fore
SplineSet
731.023 -24 m 2,0,1
 334.023 -24 334.023 -24 334.023 265 c 0,2,3
 334.023 370 334.023 370 355.023 474 c 2,4,-1
 469.023 1063 l 1,5,-1
 328.023 1063 l 1,6,-1
 345.023 1170 l 1,7,-1
 803.023 1170 l 1,8,-1
 786.023 1063 l 1,9,-1
 637.023 1063 l 1,10,-1
 525.023 489 l 1,11,12
 505.023 396 505.023 396 505.023 317.5 c 128,-1,13
 505.023 239 505.023 239 538.023 192 c 0,14,15
 597.023 108 597.023 108 784.523 108 c 128,-1,16
 972.023 108 972.023 108 1066.03 192 c 128,-1,17
 1160.03 276 1160.03 276 1206.03 489 c 1,18,-1
 1318.03 1063 l 1,19,-1
 1176.03 1063 l 1,20,-1
 1194.03 1170 l 1,21,-1
 1585.03 1170 l 1,22,-1
 1569.03 1063 l 1,23,-1
 1420.03 1063 l 1,24,-1
 1305.03 474 l 2,25,26
 1251.03 202 1251.03 202 1121.53 89 c 128,-1,27
 992.023 -24 992.023 -24 734.023 -24 c 2,28,-1
 731.023 -24 l 2,0,1
EndSplineSet
EndChar

StartChar: V
Encoding: 305 86 49
Width: 1454
VWidth: 0
GlyphClass: 2
Flags: W
HStem: 0 21G<640.459 795.016> 1063 107<327.523 428.523 618.523 748.523 1217.53 1337.53 1446.53 1560.53>
DStem2: 618.523 1063 428.523 1063 0.199129 -0.979973<0 886.843> 795.523 194 782.523 0 0.529788 0.84813<0 1024.17>
LayerCount: 2
Fore
SplineSet
618.523 1063 m 1,0,-1
 795.523 194 l 1,1,-1
 1337.53 1063 l 1,2,-1
 1200.53 1063 l 1,3,-1
 1217.53 1170 l 1,4,-1
 1576.53 1170 l 1,5,-1
 1560.53 1063 l 1,6,-1
 1446.53 1063 l 1,7,-1
 782.523 0 l 1,8,-1
 644.523 0 l 1,9,-1
 428.523 1063 l 1,10,-1
 311.523 1063 l 1,11,-1
 327.523 1170 l 1,12,-1
 765.523 1170 l 1,13,-1
 748.523 1063 l 1,14,-1
 618.523 1063 l 1,0,-1
EndSplineSet
EndChar

StartChar: W
Encoding: 306 87 50
Width: 1949
VWidth: 0
GlyphClass: 2
Flags: W
HStem: 0 21G<433.523 679.964 1155.53 1389.97> 1063 107<333.523 433.523 607.523 753.523 1712.53 1839.53 1934.53 2049.53>
VStem: 433.523 174<224 1063> 1155.53 147<212 931>
LayerCount: 2
Fore
SplineSet
1379.53 0 m 1,0,-1
 1155.53 0 l 1,1,-1
 1155.53 931 l 1,2,-1
 669.523 0 l 1,3,-1
 433.523 0 l 1,4,-1
 433.523 1063 l 1,5,-1
 317.523 1063 l 1,6,-1
 333.523 1170 l 1,7,-1
 769.523 1170 l 1,8,-1
 753.523 1063 l 1,9,-1
 607.523 1063 l 1,10,-1
 607.523 224 l 1,11,-1
 1182.53 1170 l 1,12,-1
 1302.53 1170 l 1,13,-1
 1302.53 212 l 1,14,-1
 1839.53 1063 l 1,15,-1
 1694.53 1063 l 1,16,-1
 1712.53 1170 l 1,17,-1
 2066.53 1170 l 1,18,-1
 2049.53 1063 l 1,19,-1
 1934.53 1063 l 1,20,-1
 1379.53 0 l 1,0,-1
EndSplineSet
EndChar

StartChar: X
Encoding: 307 88 51
Width: 1378
VWidth: 0
GlyphClass: 2
Flags: W
HStem: 0 106<121.304 255.304 376.304 487.304 807.304 946.304 1168.3 1277.3> 1063 107<337.304 446.304 668.304 806.304 1043.3 1202.3 1322.3 1454.3>
DStem2: 255.304 106 376.304 106 0.703382 0.710812<85.1092 615.447 849.953 1346.35> 668.304 1063 446.304 1063 0.463072 -0.88632<0 398.54 551.575 976.943>
LayerCount: 2
Fore
SplineSet
749.304 483 m 1,0,-1
 376.304 106 l 1,1,-1
 503.304 106 l 1,2,-1
 487.304 0 l 1,3,-1
 105.304 0 l 1,4,-1
 121.304 106 l 1,5,-1
 255.304 106 l 1,6,-1
 707.304 563 l 1,7,-1
 446.304 1063 l 1,8,-1
 321.304 1063 l 1,9,-1
 337.304 1170 l 1,10,-1
 822.304 1170 l 1,11,-1
 806.304 1063 l 1,12,-1
 668.304 1063 l 1,13,-1
 853.304 710 l 1,14,-1
 1202.3 1063 l 1,15,-1
 1026.3 1063 l 1,16,-1
 1043.3 1170 l 1,17,-1
 1470.3 1170 l 1,18,-1
 1454.3 1063 l 1,19,-1
 1322.3 1063 l 1,20,-1
 894.304 630 l 1,21,-1
 1168.3 106 l 1,22,-1
 1294.3 106 l 1,23,-1
 1277.3 0 l 1,24,-1
 791.304 0 l 1,25,-1
 807.304 106 l 1,26,-1
 946.304 106 l 1,27,-1
 749.304 483 l 1,0,-1
EndSplineSet
EndChar

StartChar: Y
Encoding: 308 89 52
Width: 1343
VWidth: 0
GlyphClass: 2
Flags: W
HStem: 0 106<441.523 591.523 759.523 897.523> 1063 107<326.523 420.523 627.523 763.523 1108.53 1225.53 1339.53 1450.53>
DStem2: 627.523 1063 420.523 1063 0.427505 -0.904013<0 481.312> 570.919 0 738.919 0 0.190809 0.981627<140.04 537.877> 833.523 628 836.523 505 0.669558 0.74276<0 585.572>
LayerCount: 2
Fore
SplineSet
426.523 0 m 1,0,-1
 441.523 106 l 1,1,-1
 591.523 106 l 1,2,-1
 673.523 528 l 1,3,-1
 420.523 1063 l 1,4,-1
 310.523 1063 l 1,5,-1
 326.523 1170 l 1,6,-1
 780.523 1170 l 1,7,-1
 763.523 1063 l 1,8,-1
 627.523 1063 l 1,9,-1
 833.523 628 l 1,10,-1
 1225.53 1063 l 1,11,-1
 1091.53 1063 l 1,12,-1
 1108.53 1170 l 1,13,-1
 1466.53 1170 l 1,14,-1
 1450.53 1063 l 1,15,-1
 1339.53 1063 l 1,16,-1
 836.523 505 l 1,17,-1
 759.523 106 l 1,18,-1
 913.523 106 l 1,19,-1
 897.523 0 l 1,20,-1
 426.523 0 l 1,0,-1
EndSplineSet
EndChar

StartChar: Z
Encoding: 309 90 53
Width: 1305
VWidth: 0
GlyphClass: 2
Flags: W
HStem: 0 123<418.714 1084.71> 1047 123<464.714 1113.71>
VStem: 336.714 102<912 1014> 1114.71 101<172 273>
DStem2: 134.714 72 418.714 123 0.708551 0.705659<237.217 1381.69> 159.439 0 261.439 0 0.190809 0.981627<948.532 1086.01> 1060.8 0 1162.71 0 0.190809 0.981627<125.302 278.271>
LayerCount: 2
Fore
SplineSet
123.714 0 m 1,0,-1
 134.714 72 l 1,1,-1
 1113.71 1047 l 1,2,-1
 464.714 1047 l 1,3,-1
 438.714 912 l 1,4,-1
 336.714 912 l 1,5,-1
 386.714 1170 l 1,6,-1
 1408.71 1170 l 1,7,-1
 1397.71 1098 l 1,8,-1
 418.714 123 l 1,9,-1
 1084.71 123 l 1,10,-1
 1114.71 273 l 1,11,-1
 1215.71 273 l 1,12,-1
 1162.71 0 l 1,13,-1
 123.714 0 l 1,0,-1
EndSplineSet
EndChar

StartChar: backslash
Encoding: 310 92 54
Width: 688
GlyphClass: 2
Flags: W
VStem: 289.639 160<1333 1493> 491.639 160<-190 -30>
DStem2: 449.639 1493 289.639 1493 0.119168 -0.992874<0 1676.01>
LayerCount: 2
Fore
SplineSet
449.639 1493 m 1,0,-1
 651.639 -190 l 1,1,-1
 491.639 -190 l 1,2,-1
 289.639 1493 l 1,3,-1
 449.639 1493 l 1,0,-1
EndSplineSet
EndChar

StartChar: underscore
Encoding: 311 95 55
Width: 665
VWidth: 0
GlyphClass: 2
Flags: W
HStem: 1150 20G<282.842 417.336>
VStem: 282.842 132<1038 1170> 447.842 132<-153 -21>
DStem2: 414.842 1170 282.842 1170 0.123758 -0.992312<0 1316.91>
LayerCount: 2
Fore
SplineSet
414.842 1170 m 1,0,-1
 579.842 -153 l 1,1,-1
 447.842 -153 l 1,2,-1
 282.842 1170 l 1,3,-1
 414.842 1170 l 1,0,-1
EndSplineSet
EndChar

StartChar: bar
Encoding: 312 124 56
Width: 1347
VWidth: 0
GlyphClass: 2
Flags: W
HStem: -388 81<204.953 1006.95>
LayerCount: 2
Fore
SplineSet
1006.95 -307 m 1,0,-1
 1006.95 -388 l 1,1,-1
 204.953 -388 l 1,2,-1
 204.953 -307 l 1,3,-1
 1006.95 -307 l 1,0,-1
EndSplineSet
EndChar

StartChar: copyright
Encoding: 313 169 57
Width: 633
VWidth: 0
GlyphClass: 2
Flags: W
VStem: 331.918 134<-378 1226>
LayerCount: 2
Fore
SplineSet
465.918 1226 m 1,0,-1
 465.918 -378 l 1,1,-1
 331.918 -378 l 1,2,-1
 331.918 1226 l 1,3,-1
 465.918 1226 l 1,0,-1
EndSplineSet
EndChar

StartChar: sfthyphen
Encoding: 314 173 58
Width: 1530
VWidth: 0
GlyphClass: 2
Flags: W
HStem: 0 102<718.509 1041.35> 237 78<766.153 1008.3> 855 78<766.126 994.987> 1061 103<662.385 1093.64>
VStem: 284.106 85<390.385 773.544> 550.106 142<394.478 774.769> 1060.11 97.99<341.01 439> 1066.11 68.99<644 768.607> 1387.1 85<389.725 773.505>
LayerCount: 2
Fore
SplineSet
1158.1 439 m 1,0,1
 1112.1 237 1112.1 237 860.106 237 c 1,2,3
 728.106 237 728.106 237 639.106 331.5 c 128,-1,4
 550.106 426 550.106 426 550.106 584 c 128,-1,5
 550.106 742 550.106 742 640.106 837.5 c 128,-1,6
 730.106 933 730.106 933 864.606 933 c 128,-1,7
 999.106 933 999.106 933 1135.1 857 c 1,8,-1
 1135.1 644 l 1,9,-1
 1066.11 644 l 1,10,11
 1053.11 753 1053.11 753 1008.11 804 c 128,-1,12
 963.106 855 963.106 855 881.106 855 c 0,13,14
 692.106 855 692.106 855 692.106 585 c 128,-1,15
 692.106 315 692.106 315 879.106 315 c 0,16,17
 1029.11 315 1029.11 315 1060.11 439 c 1,18,-1
 1158.1 439 l 1,0,1
878.106 1164 m 128,-1,20
 1122.1 1164 1122.1 1164 1297.1 993 c 128,-1,21
 1472.1 822 1472.1 822 1472.1 582 c 128,-1,22
 1472.1 342 1472.1 342 1298.1 172 c 1,23,24
 987.106 0 987.106 0 893.106 0 c 0,25,26
 884.106 0 884.106 0 878.106 0 c 1,27,28
 634.106 0 634.106 0 459.106 171 c 128,-1,29
 284.106 342 284.106 342 284.106 582 c 128,-1,30
 284.106 822 284.106 822 459.106 993 c 128,-1,19
 634.106 1164 634.106 1164 878.106 1164 c 128,-1,20
1239.1 920 m 1,31,32
 1088.1 1061 1088.1 1061 877.606 1061 c 128,-1,33
 667.106 1061 667.106 1061 518.106 919.5 c 128,-1,34
 369.106 778 369.106 778 369.106 582 c 128,-1,35
 369.106 386 369.106 386 519.106 244 c 1,36,37
 739.106 116 739.106 116 878.106 102 c 1,38,39
 1089.1 102 1089.1 102 1238.1 243 c 128,-1,40
 1387.1 384 1387.1 384 1387.1 581 c 128,-1,41
 1387.1 778 1387.1 778 1239.1 920 c 1,31,32
EndSplineSet
EndChar

StartChar: paragraph
Encoding: 315 182 59
Width: 797
VWidth: 0
GlyphClass: 2
Flags: W
HStem: 351 157<292.986 670.986>
VStem: 269.986 424
LayerCount: 2
Fore
SplineSet
292.986 508 m 1,0,-1
 693.986 508 l 1,1,-1
 670.986 351 l 1,2,-1
 269.986 351 l 1,3,-1
 292.986 508 l 1,0,-1
EndSplineSet
EndChar

StartChar: multiply
Encoding: 316 215 60
Width: 1008
VWidth: 0
GlyphClass: 2
Flags: W
HStem: 1063 107<745.873 937.873 1026.88 1118.88>
VStem: 413.873 88<-192 -104> 697.873 88<-175 -87>
DStem2: 413.873 -192 501.873 -192 0.190809 0.981627<16.7912 689.558> 694.569 -192 782.569 -192 0.190809 0.981627<34.1094 1278.37>
LayerCount: 2
Fore
SplineSet
703.873 1170 m 2,0,-1
 1134.88 1170 l 1,1,-1
 1118.88 1063 l 1,2,-1
 1026.88 1063 l 1,3,-1
 785.873 -175 l 1,4,-1
 697.873 -175 l 1,5,-1
 937.873 1063 l 1,6,-1
 745.873 1063 l 1,7,-1
 501.873 -192 l 1,8,-1
 413.873 -192 l 1,9,-1
 544.873 485 l 1,10,11
 378.873 485 378.873 485 300.873 589 c 0,12,13
 246.873 661 246.873 661 246.873 744 c 0,14,15
 246.873 783 246.873 783 256.873 828 c 1,16,17
 286.873 982 286.873 982 408.873 1076 c 128,-1,18
 530.873 1170 530.873 1170 703.873 1170 c 2,0,-1
EndSplineSet
EndChar

StartChar: uni2010
Encoding: 317 8208 61
Width: 797
VWidth: 0
GlyphClass: 2
Flags: W
HStem: 351 157<292.986 670.986>
VStem: 269.986 424
LayerCount: 2
Fore
SplineSet
292.986 508 m 1,0,-1
 693.986 508 l 1,1,-1
 670.986 351 l 1,2,-1
 269.986 351 l 1,3,-1
 292.986 508 l 1,0,-1
EndSplineSet
EndChar

StartChar: uni2011
Encoding: 318 8209 62
Width: 797
VWidth: 0
GlyphClass: 2
Flags: W
HStem: 351 157<292.986 670.986>
VStem: 269.986 424
LayerCount: 2
Fore
SplineSet
292.986 508 m 1,0,-1
 693.986 508 l 1,1,-1
 670.986 351 l 1,2,-1
 269.986 351 l 1,3,-1
 292.986 508 l 1,0,-1
EndSplineSet
EndChar

StartChar: endash
Encoding: 319 8211 63
Width: 1053
VWidth: 0
GlyphClass: 2
Flags: W
HStem: 358 134<288.611 929.611>
VStem: 268.611 681
LayerCount: 2
Fore
SplineSet
288.611 492 m 1,0,-1
 949.611 492 l 1,1,-1
 929.611 358 l 1,2,-1
 268.611 358 l 1,3,-1
 288.611 492 l 1,0,-1
EndSplineSet
EndChar

StartChar: quoteleft
Encoding: 320 8216 64
Width: 620
VWidth: 0
GlyphClass: 2
Flags: W
HStem: 739 507
VStem: 325.978 170<739 916.763>
LayerCount: 2
Fore
SplineSet
664.978 1166 m 1,0,1
 594.978 1102 594.978 1102 554.978 1016.5 c 128,-1,2
 514.978 931 514.978 931 495.978 802 c 1,3,-1
 485.978 739 l 1,4,-1
 325.978 739 l 1,5,6
 353.978 913 353.978 913 422.978 1034 c 128,-1,7
 491.978 1155 491.978 1155 615.978 1246 c 1,8,-1
 664.978 1166 l 1,0,1
EndSplineSet
EndChar

StartChar: quoteright
Encoding: 321 8217 65
Width: 622
VWidth: 0
GlyphClass: 2
Flags: W
HStem: 664 506
VStem: 497.108 170<991.828 1170>
LayerCount: 2
Fore
SplineSet
326.108 744 m 1,0,1
 397.108 807 397.108 807 437.108 893 c 128,-1,2
 477.108 979 477.108 979 497.108 1109 c 1,3,-1
 507.108 1170 l 1,4,-1
 667.108 1170 l 1,5,6
 640.108 997 640.108 997 570.108 876 c 128,-1,7
 500.108 755 500.108 755 375.108 664 c 1,8,-1
 326.108 744 l 1,0,1
EndSplineSet
EndChar

StartChar: quotedblleft
Encoding: 322 8220 66
Width: 938
VWidth: 0
GlyphClass: 2
Flags: W
HStem: 739 507
VStem: 325.978 170<739 916.763> 642.978 171<739 914.107>
LayerCount: 2
Fore
SplineSet
982.978 1166 m 1,0,1
 912.978 1102 912.978 1102 872.978 1016.5 c 128,-1,2
 832.978 931 832.978 931 813.978 802 c 1,3,-1
 803.978 739 l 1,4,-1
 642.978 739 l 1,5,6
 671.978 914 671.978 914 740.478 1034.5 c 128,-1,7
 808.978 1155 808.978 1155 933.978 1246 c 1,8,-1
 982.978 1166 l 1,0,1
665.978 1166 m 1,9,10
 594.978 1102 594.978 1102 555.478 1016.5 c 128,-1,11
 515.978 931 515.978 931 495.978 802 c 2,12,-1
 485.978 739 l 1,13,-1
 325.978 739 l 1,14,15
 353.978 913 353.978 913 422.978 1034 c 128,-1,16
 491.978 1155 491.978 1155 615.978 1246 c 1,17,-1
 665.978 1166 l 1,9,10
EndSplineSet
EndChar

StartChar: quotedblright
Encoding: 323 8221 67
Width: 941
VWidth: 0
GlyphClass: 2
Flags: W
HStem: 664 506
VStem: 497.672 170<991.828 1170> 815.672 170<992.237 1170>
LayerCount: 2
Fore
SplineSet
326.672 744 m 1,0,1
 397.672 807 397.672 807 437.672 893 c 128,-1,2
 477.672 979 477.672 979 497.672 1109 c 1,3,-1
 507.672 1170 l 1,4,-1
 667.672 1170 l 1,5,6
 640.672 997 640.672 997 570.672 876 c 128,-1,7
 500.672 755 500.672 755 375.672 664 c 1,8,-1
 326.672 744 l 1,0,1
645.672 744 m 1,9,10
 715.672 807 715.672 807 755.672 892.5 c 128,-1,11
 795.672 978 795.672 978 815.672 1107 c 2,12,-1
 825.672 1170 l 1,13,-1
 985.672 1170 l 1,14,15
 957.672 995 957.672 995 888.672 875 c 128,-1,16
 819.672 755 819.672 755 695.672 664 c 1,17,-1
 645.672 744 l 1,9,10
EndSplineSet
EndChar

StartChar: bullet
Encoding: 324 8226 68
Width: 850
VWidth: 0
GlyphClass: 2
Flags: W
HStem: 299 593<410.125 670.691>
VStem: 295.915 490<425.162 767.228>
LayerCount: 2
Fore
SplineSet
366.915 385.5 m 128,-1,1
 295.915 472 295.915 472 295.915 596.5 c 128,-1,2
 295.915 721 295.915 721 367.415 806.5 c 128,-1,3
 438.915 892 438.915 892 541.915 892 c 128,-1,4
 644.915 892 644.915 892 715.415 806.5 c 128,-1,5
 785.915 721 785.915 721 785.915 596.5 c 128,-1,6
 785.915 472 785.915 472 714.915 385.5 c 128,-1,7
 643.915 299 643.915 299 540.915 299 c 256,8,0
 437.915 299 437.915 299 366.915 385.5 c 128,-1,1
EndSplineSet
EndChar

StartChar: uni2023
Encoding: 325 8227 69
Width: 862
VWidth: 0
GlyphClass: 2
Flags: W
HStem: 301 590
VStem: 297.521 556<301 891>
LayerCount: 2
Fore
SplineSet
297.521 301 m 1,0,-1
 297.521 891 l 1,1,-1
 853.521 596 l 1,2,-1
 297.521 301 l 1,0,-1
EndSplineSet
EndChar
